<svg xmlns="http://www.w3.org/2000/svg" width="32" height="32" viewBox="0 0 32 32" fill="none" stroke="#fff" stroke-width="2" stroke-linecap="round" stroke-linejoin="round">
  <path d="M14.69 3.752a1.334 1.334 0 0 1 2.62 0l1.402 7.41a2.67 2.67 0 0 0 2.125 2.126l7.411 1.401a1.334 1.334 0 0 1 0 2.622l-7.41 1.401a2.67 2.67 0 0 0-2.126 2.125l-1.401 7.411a1.334 1.334 0 0 1-2.622 0l-1.4-7.41a2.67 2.67 0 0 0-2.126-2.126l-7.41-1.401a1.334 1.334 0 0 1 0-2.622l7.41-1.401a2.67 2.67 0 0 0 2.125-2.125z"/>
</svg>
